<svg width="32" height="32" viewBox="0 0 32 32" fill="none" xmlns="http://www.w3.org/2000/svg">
<path fill-rule="evenodd" clip-rule="evenodd" d="M16 20.2857C18.3669 20.2857 20.2857 18.3669 20.2857 16C20.2857 13.6331 18.3669 11.7143 16 11.7143C13.6331 11.7143 11.7143 13.6331 11.7143 16C11.7143 18.3669 13.6331 20.2857 16 20.2857ZM16 21C18.7614 21 21 18.7614 21 16C21 13.2386 18.7614 11 16 11C13.2386 11 11 13.2386 11 16C11 18.7614 13.2386 21 16 21Z" fill="black"/>
<path d="M23 16C23 19.866 19.866 23 16 23C12.134 23 9 19.866 9 16C9 12.134 12.134 9 16 9C19.866 9 23 12.134 23 16Z" fill="black"/>
</svg>
