<svg width="14" height="24" viewBox="0 0 14 24" fill="none" xmlns="http://www.w3.org/2000/svg">
<path d="M13.0612 13.0612L3.0612 23.0612C2.7794 23.343 2.39721 23.5013 1.9987 23.5013C1.60018 23.5013 1.21799 23.343 0.936195 23.0612C0.654403 22.7794 0.496094 22.3972 0.496094 21.9987C0.496094 21.6002 0.654403 21.218 0.936195 20.9362L9.87495 11.9999L0.938696 3.0612C0.799166 2.92167 0.688485 2.75602 0.612972 2.57372C0.537459 2.39141 0.498593 2.19602 0.498593 1.9987C0.498593 1.80137 0.537459 1.60598 0.612972 1.42367C0.688485 1.24137 0.799166 1.07573 0.938696 0.936196C1.07823 0.796666 1.24387 0.685985 1.42618 0.610473C1.60848 0.53496 1.80387 0.496094 2.0012 0.496094C2.19852 0.496094 2.39391 0.53496 2.57622 0.610473C2.75852 0.685986 2.92417 0.796666 3.0637 0.936196L13.0637 10.9362C13.2034 11.0757 13.3141 11.2414 13.3896 11.4239C13.4651 11.6063 13.5039 11.8018 13.5036 11.9992C13.5034 12.1966 13.4642 12.3921 13.3883 12.5743C13.3123 12.7565 13.2012 12.922 13.0612 13.0612Z" fill="black"/>
</svg>
