<svg width="32" height="32" viewBox="0 0 32 32" fill="none" xmlns="http://www.w3.org/2000/svg">
<path d="M27 14.0001V26.0001C27 26.5305 26.7893 27.0392 26.4142 27.4143C26.0391 27.7893 25.5304 28.0001 25 28.0001H7C6.46957 28.0001 5.96086 27.7893 5.58579 27.4143C5.21071 27.0392 5 26.5305 5 26.0001V14.0001C5 13.4696 5.21071 12.9609 5.58579 12.5858C5.96086 12.2108 6.46957 12.0001 7 12.0001H10C10.2652 12.0001 10.5196 12.1054 10.7071 12.2929C10.8946 12.4805 11 12.7348 11 13.0001C11 13.2653 10.8946 13.5196 10.7071 13.7072C10.5196 13.8947 10.2652 14.0001 10 14.0001H7V26.0001H25V14.0001H22C21.7348 14.0001 21.4804 13.8947 21.2929 13.7072C21.1054 13.5196 21 13.2653 21 13.0001C21 12.7348 21.1054 12.4805 21.2929 12.2929C21.4804 12.1054 21.7348 12.0001 22 12.0001H25C25.5304 12.0001 26.0391 12.2108 26.4142 12.5858C26.7893 12.9609 27 13.4696 27 14.0001ZM11.7075 8.70755L15 5.4138V17.0001C15 17.2653 15.1054 17.5196 15.2929 17.7072C15.4804 17.8947 15.7348 18.0001 16 18.0001C16.2652 18.0001 16.5196 17.8947 16.7071 17.7072C16.8946 17.5196 17 17.2653 17 17.0001V5.4138L20.2925 8.70755C20.4801 8.8952 20.7346 9.00061 21 9.00061C21.2654 9.00061 21.5199 8.8952 21.7075 8.70755C21.8951 8.51991 22.0006 8.26542 22.0006 8.00005C22.0006 7.73469 21.8951 7.4802 21.7075 7.29255L16.7075 2.29255C16.6146 2.19958 16.5043 2.12582 16.3829 2.07549C16.2615 2.02517 16.1314 1.99927 16 1.99927C15.8686 1.99927 15.7385 2.02517 15.6171 2.07549C15.4957 2.12582 15.3854 2.19958 15.2925 2.29255L10.2925 7.29255C10.1049 7.4802 9.99944 7.73469 9.99944 8.00005C9.99944 8.26542 10.1049 8.51991 10.2925 8.70755C10.4801 8.89519 10.7346 9.00061 11 9.00061C11.2654 9.00061 11.5199 8.8952 11.7075 8.70755Z" fill="#1C1C1C"/>
</svg>
