<svg width="32" height="32" viewBox="0 0 32 32" fill="E0E0E0" xmlns="http://www.w3.org/2000/svg">
<path d="M27.8751 7.12502C26.5165 5.76984 24.6766 5.00775 22.7577 5.00541C20.8387 5.00307 18.997 5.76066 17.6351 7.11252L16.0001 8.63127L14.3638 7.10752C13.0023 5.74978 11.1571 4.98852 9.23428 4.99122C7.31145 4.99391 5.46844 5.76034 4.1107 7.1219C2.75295 8.48345 1.9917 10.3286 1.99439 12.2514C1.99709 14.1743 2.76352 16.0173 4.12507 17.375L15.2938 28.7075C15.3869 28.802 15.4978 28.877 15.6201 28.9283C15.7424 28.9795 15.8737 29.0058 16.0063 29.0058C16.1389 29.0058 16.2702 28.9795 16.3925 28.9283C16.5149 28.877 16.6258 28.802 16.7188 28.7075L27.8751 17.375C29.2338 16.0155 29.997 14.1721 29.997 12.25C29.997 10.3279 29.2338 8.48454 27.8751 7.12502ZM26.4563 15.97L16.0001 26.575L5.53757 15.96C4.55295 14.9754 3.9998 13.64 3.9998 12.2475C3.9998 10.8551 4.55295 9.51964 5.53757 8.53502C6.52219 7.55041 7.85761 6.99725 9.25007 6.99725C10.6425 6.99725 11.978 7.55041 12.9626 8.53502L12.9876 8.56002L15.3188 10.7288C15.5039 10.901 15.7473 10.9967 16.0001 10.9967C16.2529 10.9967 16.4963 10.901 16.6813 10.7288L19.0126 8.56002L19.0376 8.53502C20.0229 7.55107 21.3586 6.99882 22.7511 6.99975C24.1436 7.00069 25.4786 7.55474 26.4626 8.54002C27.4465 9.5253 27.9988 10.8611 27.9978 12.2536C27.9969 13.646 27.4429 14.9811 26.4576 15.965L26.4563 15.97Z"/>
</svg>
