<svg width="32" height="32" viewBox="0 0 32 32" fill="none" xmlns="http://www.w3.org/2000/svg">
<path d="M21.0613 24.9391C21.3431 25.2209 21.5014 25.6031 21.5014 26.0016C21.5014 26.4001 21.3431 26.7823 21.0613 27.0641C20.7795 27.3459 20.3973 27.5042 19.9988 27.5042C19.6003 27.5042 19.2181 27.3459 18.9363 27.0641L8.9363 17.0641C8.79646 16.9248 8.6855 16.7592 8.6098 16.5769C8.53409 16.3945 8.49512 16.199 8.49512 16.0016C8.49512 15.8042 8.53409 15.6087 8.6098 15.4264C8.6855 15.2441 8.79646 15.0785 8.9363 14.9391L18.9363 4.93913C19.2181 4.65733 19.6003 4.49902 19.9988 4.49902C20.3973 4.49902 20.7795 4.65733 21.0613 4.93913C21.3431 5.22092 21.5014 5.60311 21.5014 6.00163C21.5014 6.40014 21.3431 6.78233 21.0613 7.06413L12.125 16.0004L21.0613 24.9391Z" fill="black"/>
</svg>
