<svg width="100" height="100" viewBox="0 0 100 100" fill="none" xmlns="http://www.w3.org/2000/svg">
<circle cx="80.3571" cy="19.3571" r="5.35714" fill="#EF226C"/>
<path d="M10.184 85V64H15.364C16.8853 64 18.094 64.462 18.99 65.386C19.886 66.3007 20.334 67.5187 20.334 69.04V72.218C20.334 73.2073 20.138 74.0753 19.746 74.822C19.354 75.5687 18.794 76.1613 18.066 76.6L17.842 75.578C18.6353 75.8673 19.2467 76.306 19.676 76.894C20.1147 77.482 20.334 78.1867 20.334 79.008V85H17.114V79.008C17.114 78.4853 16.96 78.0653 16.652 77.748C16.344 77.4213 15.9147 77.258 15.364 77.258H13.404V85H10.184ZM13.404 74.038H15.364C15.9147 74.038 16.344 73.8747 16.652 73.548C16.96 73.212 17.114 72.7687 17.114 72.218V69.04C17.114 68.4893 16.96 68.0507 16.652 67.724C16.344 67.388 15.9147 67.22 15.364 67.22H13.404V74.038ZM32.9854 64V67.22H27.5954V72.47H32.2294V75.69H27.5954V81.78H32.9854V85H24.3754V64H32.9854ZM37.8213 85V67.22H34.5593V64H44.2893V67.22H41.0413V85H37.8213ZM44.6804 85L48.8524 64H52.3244L56.4404 85H53.1364L52.5204 81.416H48.6144L47.9844 85H44.6804ZM49.1184 78.196H52.0164L50.3644 68.396H50.8124L49.1184 78.196ZM62.3767 85H59.1567V64H62.3767V85ZM69.9782 64V81.78H74.8082V85H66.7582V64H69.9782Z" fill="#EF226C"/>
<path d="M10.532 57L14.704 36H18.176L22.292 57H18.988L18.372 53.416H14.466L13.836 57H10.532ZM14.97 50.196H17.868L16.216 40.396H16.664L14.97 50.196ZM25.0082 57V36H30.1882C31.7096 36 32.9182 36.462 33.8142 37.386C34.7102 38.3007 35.1582 39.5187 35.1582 41.04V43.658C35.1582 45.17 34.7102 46.388 33.8142 47.312C32.9182 48.236 31.7096 48.698 30.1882 48.698H28.2282V57H25.0082ZM28.2282 45.478H30.1882C30.7389 45.478 31.1682 45.3147 31.4762 44.988C31.7842 44.652 31.9382 44.2087 31.9382 43.658V41.04C31.9382 40.4893 31.7842 40.0507 31.4762 39.724C31.1682 39.388 30.7389 39.22 30.1882 39.22H28.2282V45.478ZM38.2153 57V36H43.3953C44.9166 36 46.1253 36.462 47.0213 37.386C47.9173 38.3007 48.3653 39.5187 48.3653 41.04V43.658C48.3653 45.17 47.9173 46.388 47.0213 47.312C46.1253 48.236 44.9166 48.698 43.3953 48.698H41.4353V57H38.2153ZM41.4353 45.478H43.3953C43.9459 45.478 44.3753 45.3147 44.6833 44.988C44.9913 44.652 45.1453 44.2087 45.1453 43.658V41.04C45.1453 40.4893 44.9913 40.0507 44.6833 39.724C44.3753 39.388 43.9459 39.22 43.3953 39.22H41.4353V45.478ZM54.6423 36V53.78H59.4723V57H51.4223V36H54.6423ZM70.751 36V39.22H65.361V44.47H69.995V47.69H65.361V53.78H70.751V57H62.141V36H70.751Z" fill="#2400FF"/>
<line y1="2" x2="25" y2="2" stroke="#2400FF" stroke-width="4"/>
<line x1="2" y1="8.74228e-08" x2="2" y2="25" stroke="#2400FF" stroke-width="4"/>
<line x1="2" y1="100" x2="2" y2="75" stroke="#2400FF" stroke-width="4"/>
<line x1="1.11273e-07" y1="98" x2="25" y2="98" stroke="#2400FF" stroke-width="4"/>
<line x1="98" y1="8.74228e-08" x2="98" y2="25" stroke="#2400FF" stroke-width="4"/>
<line x1="100" y1="2" x2="75" y2="2" stroke="#2400FF" stroke-width="4"/>
<line x1="100" y1="98" x2="75" y2="98" stroke="#2400FF" stroke-width="4"/>
<line x1="98" y1="100" x2="98" y2="75" stroke="#2400FF" stroke-width="4"/>
</svg>
