<svg width="108" height="108" viewBox="0 0 108 108" fill="none" xmlns="http://www.w3.org/2000/svg">
<g filter="url(#filter0_d_2_41)">
<circle cx="84.5" cy="19.5" r="5.5" fill="#EF226C"/>
<path d="M14.184 85V64H19.364C20.8853 64 22.094 64.462 22.99 65.386C23.886 66.3007 24.334 67.5187 24.334 69.04V72.218C24.334 73.2073 24.138 74.0753 23.746 74.822C23.354 75.5687 22.794 76.1613 22.066 76.6L21.842 75.578C22.6353 75.8673 23.2467 76.306 23.676 76.894C24.1147 77.482 24.334 78.1867 24.334 79.008V85H21.114V79.008C21.114 78.4853 20.96 78.0653 20.652 77.748C20.344 77.4213 19.9147 77.258 19.364 77.258H17.404V85H14.184ZM17.404 74.038H19.364C19.9147 74.038 20.344 73.8747 20.652 73.548C20.96 73.212 21.114 72.7687 21.114 72.218V69.04C21.114 68.4893 20.96 68.0507 20.652 67.724C20.344 67.388 19.9147 67.22 19.364 67.22H17.404V74.038ZM36.9854 64V67.22H31.5954V72.47H36.2294V75.69H31.5954V81.78H36.9854V85H28.3754V64H36.9854ZM41.8213 85V67.22H38.5593V64H48.2893V67.22H45.0413V85H41.8213ZM48.6804 85L52.8524 64H56.3244L60.4404 85H57.1364L56.5204 81.416H52.6144L51.9844 85H48.6804ZM53.1184 78.196H56.0164L54.3644 68.396H54.8124L53.1184 78.196ZM66.3767 85H63.1567V64H66.3767V85ZM73.9782 64V81.78H78.8082V85H70.7582V64H73.9782Z" fill="#EF226C"/>
<path d="M14.532 57L18.704 36H22.176L26.292 57H22.988L22.372 53.416H18.466L17.836 57H14.532ZM18.97 50.196H21.868L20.216 40.396H20.664L18.97 50.196ZM29.0082 57V36H34.1882C35.7096 36 36.9182 36.462 37.8142 37.386C38.7102 38.3007 39.1582 39.5187 39.1582 41.04V43.658C39.1582 45.17 38.7102 46.388 37.8142 47.312C36.9182 48.236 35.7096 48.698 34.1882 48.698H32.2282V57H29.0082ZM32.2282 45.478H34.1882C34.7389 45.478 35.1682 45.3147 35.4762 44.988C35.7842 44.652 35.9382 44.2087 35.9382 43.658V41.04C35.9382 40.4893 35.7842 40.0507 35.4762 39.724C35.1682 39.388 34.7389 39.22 34.1882 39.22H32.2282V45.478ZM42.2153 57V36H47.3953C48.9166 36 50.1253 36.462 51.0213 37.386C51.9173 38.3007 52.3653 39.5187 52.3653 41.04V43.658C52.3653 45.17 51.9173 46.388 51.0213 47.312C50.1253 48.236 48.9166 48.698 47.3953 48.698H45.4353V57H42.2153ZM45.4353 45.478H47.3953C47.9459 45.478 48.3753 45.3147 48.6833 44.988C48.9913 44.652 49.1453 44.2087 49.1453 43.658V41.04C49.1453 40.4893 48.9913 40.0507 48.6833 39.724C48.3753 39.388 47.9459 39.22 47.3953 39.22H45.4353V45.478ZM58.6423 36V53.78H63.4723V57H55.4223V36H58.6423ZM74.751 36V39.22H69.361V44.47H73.995V47.69H69.361V53.78H74.751V57H66.141V36H74.751Z" fill="#2400FF"/>
<line x1="100" y1="98" x2="79" y2="98" stroke="#2400FF" stroke-width="4"/>
<line x1="102" y1="100" x2="102" y2="75" stroke="#2400FF" stroke-width="4"/>
<line x1="8" y1="2" x2="29" y2="2" stroke="#2400FF" stroke-width="4"/>
<line x1="6" y1="8.74228e-08" x2="6" y2="25" stroke="#2400FF" stroke-width="4"/>
<line x1="6.00002" y1="96" x2="6.00002" y2="75" stroke="#2400FF" stroke-width="4"/>
<line x1="4.00002" y1="98" x2="29" y2="98" stroke="#2400FF" stroke-width="4"/>
<line x1="102" y1="4" x2="102" y2="25" stroke="#2400FF" stroke-width="4"/>
<line x1="104" y1="2" x2="79" y2="2" stroke="#2400FF" stroke-width="4"/>
</g>
<defs>
<filter id="filter0_d_2_41" x="0" y="0" width="108" height="108" filterUnits="userSpaceOnUse" color-interpolation-filters="sRGB">
<feFlood flood-opacity="0" result="BackgroundImageFix"/>
<feColorMatrix in="SourceAlpha" type="matrix" values="0 0 0 0 0 0 0 0 0 0 0 0 0 0 0 0 0 0 127 0" result="hardAlpha"/>
<feOffset dy="4"/>
<feGaussianBlur stdDeviation="2"/>
<feComposite in2="hardAlpha" operator="out"/>
<feColorMatrix type="matrix" values="0 0 0 0 0 0 0 0 0 0 0 0 0 0 0 0 0 0 0.25 0"/>
<feBlend mode="normal" in2="BackgroundImageFix" result="effect1_dropShadow_2_41"/>
<feBlend mode="normal" in="SourceGraphic" in2="effect1_dropShadow_2_41" result="shape"/>
</filter>
</defs>
</svg>
