<svg width="28" height="28" viewBox="0 0 28 28" fill="none" xmlns="http://www.w3.org/2000/svg">
<rect x="0.5" y="0.5" width="27" height="27" fill="#0019FF" stroke="#FFFDFD" stroke-dasharray="10 10"/>
<circle cx="22.5" cy="5.5" r="1.5" fill="#EF226C"/>
<path d="M3.114 14L4.008 9.5H4.752L5.634 14H4.926L4.794 13.232H3.957L3.822 14H3.114ZM4.065 12.542H4.686L4.332 10.442H4.428L4.065 12.542ZM6.21605 14V9.5H7.32605C7.65205 9.5 7.91105 9.599 8.10305 9.797C8.29505 9.993 8.39105 10.254 8.39105 10.58V11.141C8.39105 11.465 8.29505 11.726 8.10305 11.924C7.91105 12.122 7.65205 12.221 7.32605 12.221H6.90605V14H6.21605ZM6.90605 11.531H7.32605C7.44405 11.531 7.53605 11.496 7.60205 11.426C7.66805 11.354 7.70105 11.259 7.70105 11.141V10.58C7.70105 10.462 7.66805 10.368 7.60205 10.298C7.53605 10.226 7.44405 10.19 7.32605 10.19H6.90605V11.531ZM9.04613 14V9.5H10.1561C10.4821 9.5 10.7411 9.599 10.9331 9.797C11.1251 9.993 11.2211 10.254 11.2211 10.58V11.141C11.2211 11.465 11.1251 11.726 10.9331 11.924C10.7411 12.122 10.4821 12.221 10.1561 12.221H9.73613V14H9.04613ZM9.73613 11.531H10.1561C10.2741 11.531 10.3661 11.496 10.4321 11.426C10.4981 11.354 10.5311 11.259 10.5311 11.141V10.58C10.5311 10.462 10.4981 10.368 10.4321 10.298C10.3661 10.226 10.2741 10.19 10.1561 10.19H9.73613V11.531ZM12.5662 9.5V13.31H13.6012V14H11.8762V9.5H12.5662ZM16.0181 9.5V10.19H14.8631V11.315H15.8561V12.005H14.8631V13.31H16.0181V14H14.1731V9.5H16.0181Z" fill="white"/>
<path d="M3.468 21V16.5H4.578C4.904 16.5 5.163 16.599 5.355 16.797C5.547 16.993 5.643 17.254 5.643 17.58V18.261C5.643 18.473 5.601 18.659 5.517 18.819C5.433 18.979 5.313 19.106 5.157 19.2L5.109 18.981C5.279 19.043 5.41 19.137 5.502 19.263C5.596 19.389 5.643 19.54 5.643 19.716V21H4.953V19.716C4.953 19.604 4.92 19.514 4.854 19.446C4.788 19.376 4.696 19.341 4.578 19.341H4.158V21H3.468ZM4.158 18.651H4.578C4.696 18.651 4.788 18.616 4.854 18.546C4.92 18.474 4.953 18.379 4.953 18.261V17.58C4.953 17.462 4.92 17.368 4.854 17.298C4.788 17.226 4.696 17.19 4.578 17.19H4.158V18.651ZM8.35402 16.5V17.19H7.19902V18.315H8.19202V19.005H7.19902V20.31H8.35402V21H6.50902V16.5H8.35402ZM9.39028 21V17.19H8.69128V16.5H10.7763V17.19H10.0803V21H9.39028ZM10.8601 21L11.7541 16.5H12.4981L13.3801 21H12.6721L12.5401 20.232H11.7031L11.5681 21H10.8601ZM11.8111 19.542H12.4321L12.0781 17.442H12.1741L11.8111 19.542ZM14.6521 21H13.9621V16.5H14.6521V21ZM16.281 16.5V20.31H17.316V21H15.591V16.5H16.281Z" fill="#EF226C"/>
</svg>
