<svg width="32" height="32" viewBox="0 0 32 32" fill="none" xmlns="http://www.w3.org/2000/svg">
<path d="M27.9836 14.25L6.98364 2.26376C6.62966 2.06519 6.22364 1.97902 5.81952 2.01669C5.41539 2.05437 5.0323 2.21411 4.72112 2.47469C4.40994 2.73527 4.18541 3.08436 4.07735 3.47558C3.96929 3.86681 3.98282 4.28165 4.11614 4.66501L7.99114 15.9738C7.99064 15.9779 7.99064 15.9821 7.99114 15.9863C7.99044 15.9904 7.99044 15.9946 7.99114 15.9988L4.11614 27.3325C4.00937 27.6341 3.9765 27.9568 4.02028 28.2737C4.06407 28.5906 4.18323 28.8924 4.36776 29.1537C4.5523 29.415 4.79683 29.6283 5.08082 29.7755C5.36481 29.9228 5.67999 29.9998 5.99989 30C6.34698 29.9991 6.68797 29.9087 6.98989 29.7375L27.9786 17.7313C28.2882 17.5578 28.5461 17.3051 28.7258 16.9991C28.9055 16.6931 29.0006 16.3448 29.0012 15.99C29.0018 15.6351 28.908 15.2864 28.7294 14.9798C28.5508 14.6732 28.2939 14.4195 27.9849 14.245L27.9836 14.25ZM5.99989 28V27.9888L9.76739 17H16.9999C17.2651 17 17.5195 16.8947 17.707 16.7071C17.8945 16.5196 17.9999 16.2652 17.9999 16C17.9999 15.7348 17.8945 15.4804 17.707 15.2929C17.5195 15.1054 17.2651 15 16.9999 15H9.77739L6.00739 4.01501L5.99989 4.00001L26.9999 15.9788L5.99989 28Z" fill="#1C1C1C"/>
</svg>
