<svg width="16" height="16" viewBox="0 0 32 32" fill="#adadad" xmlns="http://www.w3.org/2000/svg">
<path d="M23.0163 18.4625C22.8793 18.5829 22.7774 18.7382 22.7215 18.9118C22.6656 19.0855 22.6577 19.271 22.6988 19.4488L24.3888 26.7663C24.4335 26.9574 24.4209 27.1574 24.3527 27.3415C24.2844 27.5255 24.1636 27.6854 24.0051 27.8012C23.8467 27.917 23.6576 27.9836 23.4616 27.9927C23.2655 28.0019 23.0711 27.9531 22.9026 27.8525L16.5151 23.9775C16.3599 23.8831 16.1817 23.8332 16.0001 23.8332C15.8184 23.8332 15.6403 23.8831 15.4851 23.9775L9.09756 27.8525C8.92902 27.9531 8.73461 28.0019 8.53856 27.9927C8.3425 27.9836 8.15346 27.917 7.99501 27.8012C7.83655 27.6854 7.71567 27.5255 7.64744 27.3415C7.57921 27.1574 7.56665 26.9574 7.61131 26.7663L9.30131 19.4488C9.34239 19.271 9.33456 19.0855 9.27866 18.9118C9.22275 18.7382 9.12086 18.5829 8.98381 18.4625L3.34506 13.5438C3.19431 13.4156 3.08495 13.2457 3.03083 13.0554C2.9767 12.8651 2.98024 12.663 3.04099 12.4747C3.10175 12.2864 3.21699 12.1204 3.37213 11.9976C3.52727 11.8749 3.71535 11.8009 3.91256 11.785L11.3451 11.1425C11.5264 11.1264 11.6999 11.061 11.8468 10.9535C11.9937 10.846 12.1085 10.7005 12.1788 10.5325L15.0826 3.61252C15.1601 3.43361 15.2883 3.28128 15.4513 3.17427C15.6143 3.06726 15.8051 3.01025 16.0001 3.01025C16.1951 3.01025 16.3858 3.06726 16.5488 3.17427C16.7118 3.28128 16.84 3.43361 16.9176 3.61252L19.8213 10.5325C19.8916 10.7005 20.0064 10.846 20.1533 10.9535C20.3002 11.061 20.4737 11.1264 20.6551 11.1425L28.0876 11.785C28.2848 11.8009 28.4728 11.8749 28.628 11.9976C28.7831 12.1204 28.8984 12.2864 28.9591 12.4747C29.0199 12.663 29.0234 12.8651 28.9693 13.0554C28.9152 13.2457 28.8058 13.4156 28.6551 13.5438L23.0163 18.4625Z" />
</svg>
