<svg width="16" height="16" viewBox="0 0 16 16" fill="none" xmlns="http://www.w3.org/2000/svg">
<path fill-rule="evenodd" clip-rule="evenodd" d="M0.5 3.9375C0.5 2.03902 2.03902 0.5 3.9375 0.5C5.83598 0.5 7.375 2.03902 7.375 3.9375V6C7.375 6.75939 6.75939 7.375 6 7.375H3.9375C2.03902 7.375 0.5 5.83598 0.5 3.9375ZM6.125 3.9375V6C6.125 6.06904 6.06904 6.125 6 6.125H3.9375C2.72938 6.125 1.75 5.14562 1.75 3.9375C1.75 2.72938 2.72938 1.75 3.9375 1.75C5.14562 1.75 6.125 2.72938 6.125 3.9375Z" fill="#1C1C1C"/>
<path fill-rule="evenodd" clip-rule="evenodd" d="M0.5 12.0625C0.5 10.164 2.03902 8.625 3.9375 8.625H6C6.75939 8.625 7.375 9.24061 7.375 10V12.0625C7.375 13.961 5.83598 15.5 3.9375 15.5C2.03902 15.5 0.5 13.961 0.5 12.0625ZM3.9375 9.875H6C6.06904 9.875 6.125 9.93096 6.125 10V12.0625C6.125 13.2706 5.14562 14.25 3.9375 14.25C2.72938 14.25 1.75 13.2706 1.75 12.0625C1.75 10.8544 2.72938 9.875 3.9375 9.875Z" fill="#1C1C1C"/>
<path fill-rule="evenodd" clip-rule="evenodd" d="M12.0625 0.5C10.164 0.5 8.625 2.03902 8.625 3.9375V6C8.625 6.75939 9.24061 7.375 10 7.375H12.0625C13.961 7.375 15.5 5.83598 15.5 3.9375C15.5 2.03902 13.961 0.5 12.0625 0.5ZM10 6.125H12.0625C13.2706 6.125 14.25 5.14562 14.25 3.9375C14.25 2.72938 13.2706 1.75 12.0625 1.75C10.8544 1.75 9.875 2.72938 9.875 3.9375V6C9.875 6.06904 9.93096 6.125 10 6.125Z" fill="#1C1C1C"/>
<path fill-rule="evenodd" clip-rule="evenodd" d="M8.625 10C8.625 9.24061 9.24061 8.625 10 8.625H12.0625C13.961 8.625 15.5 10.164 15.5 12.0625C15.5 13.961 13.961 15.5 12.0625 15.5C10.164 15.5 8.625 13.961 8.625 12.0625V10ZM10 9.875H12.0625C13.2706 9.875 14.25 10.8544 14.25 12.0625C14.25 13.2706 13.2706 14.25 12.0625 14.25C10.8544 14.25 9.875 13.2706 9.875 12.0625V10C9.875 9.93096 9.93096 9.875 10 9.875Z" fill="#1C1C1C"/>
</svg>
